<svg xmlns="http://www.w3.org/2000/svg" width="50" height="50" fill="#000" viewBox="0 0 50 50"><path d="M 17.533203 3 C 9.7912031 3 3 12.081547 3 22.435547 C 3 30.444547 7.2020312 37.924234 12.832031 40.740234 C 10.993031 35.352234 12.33975 28.267219 16.46875 22.449219 C 15.15875 20.280219 14 17.599 14 14 C 14 10.735 16.078969 7.5783125 16.167969 7.4453125 C 16.473969 6.9863125 17.094688 6.8629687 17.554688 7.1679688 C 18.013687 7.4729687 18.137031 8.0946875 17.832031 8.5546875 C 17.813031 8.5826875 16 11.349 16 14 C 16 16.784 16.775109 18.918094 17.787109 20.746094 C 18.235109 20.216094 18.699266 19.695266 19.197266 19.197266 C 22.273266 16.121266 26.035047 13.926406 29.998047 12.816406 C 27.352047 6.9274062 22.487203 3 17.533203 3 z M 36.291016 14.013672 C 35.253438 13.968438 34.170391 14.02525 33.056641 14.1875 C 28.515641 14.8465 24.095328 17.127328 20.611328 20.611328 C 13.446328 27.777328 11.781828 38.684172 17.048828 43.951172 C 19.034828 45.938172 21.997297 47.001953 25.404297 47.001953 C 26.226297 47.001953 27.077359 46.9385 27.943359 46.8125 C 32.484359 46.1535 36.902719 43.872672 40.386719 40.388672 C 47.552719 33.222672 49.218172 22.315828 43.951172 17.048828 C 42.101672 15.199328 39.40375 14.149375 36.291016 14.013672 z M 41 20.017578 C 41.553 20.017578 42 20.465578 42 21.017578 C 42 24.833578 39.06975 29.612031 30.84375 31.582031 C 22.02175 33.692031 22.021484 38.446 22.021484 41 C 22.021484 41.552 21.574484 42 21.021484 42 C 20.468484 42 20.021484 41.552 20.021484 41 C 20.021484 38.341 20.021906 32.116672 30.378906 29.638672 C 37.472906 27.939672 40 24.070578 40 21.017578 C 40 20.465578 40.447 20.017578 41 20.017578 z"/></svg>